<svg id="Ebene_1" data-name="Ebene 1" xmlns="http://www.w3.org/2000/svg" viewBox="0 0 30 30"><defs><style>.cls-1{fill:#555;}</style></defs><path class="cls-1" d="M23,4.62H7a4,4,0,0,0-4,4H3V19.46a4,4,0,0,0,4,4h2.9l4.42,3.75a1.07,1.07,0,0,0,1.29,0l4.45-3.75H23a4,4,0,0,0,4-4V8.62A4,4,0,0,0,23,4.62Zm2.29,3.77V19.55a2,2,0,0,1-2,2h-3a2.06,2.06,0,0,0-1.33.49l-3.93,3.29-4-3.29a2,2,0,0,0-1.32-.49H6.82a2,2,0,0,1-2-2h0V8.39a2,2,0,0,1,2-2H23.21a2.08,2.08,0,0,1,2.1,2Z"/><path class="cls-1" d="M7.82,14.81H18.27a.84.84,0,0,0,0-1.68H7.92a.86.86,0,0,0-.9.78A.88.88,0,0,0,7.82,14.81Z"/><path class="cls-1" d="M7.89,11.42h5.19a.83.83,0,0,0,.77-.9.8.8,0,0,0-.77-.77H7.92a.82.82,0,0,0-.81.87A.87.87,0,0,0,7.89,11.42Z"/><path class="cls-1" d="M18.24,16.49H7.89a.84.84,0,1,0-.13,1.68H18.21a.82.82,0,0,0,.84-.84A.79.79,0,0,0,18.24,16.49Z"/></svg>